<svg xmlns="http://www.w3.org/2000/svg" viewBox="0 0 667.32 350.28"><defs><style>.cls-1{fill:#fffbda;}</style></defs><g id="Layer_2" data-name="Layer 2"><g id="Layer_1-2" data-name="Layer 1"><path class="cls-1" d="M0,168.21c.77-16.2,1.79-32.4,2.56-48.6C6.91,123.47,35.08,124,60.18,124H85c24.84,0,53-.51,57.62-4.37.77,16.2,1.54,32.4,2.56,48.6h-2c-1.53-9.77-5.89-41.66-21.25-42.17H80.67V281.88a20.55,20.55,0,0,0,2.82,9c2.56,4.11,6.14,6.17,11.26,6.43H96v2.06H49.17v-2.06h1.28c.51,0,.77-.26,1-.26a12.56,12.56,0,0,0,10-5.66,20.66,20.66,0,0,0,2.82-8.74,8.13,8.13,0,0,0,.25-2.57V126H23.3c-15.36.51-19.71,32.4-21.25,42.17Z"/><path class="cls-1" d="M168.77,201.13c0-8.49-5.12-12.86-13.32-12.86V186a102.22,102.22,0,0,0,13.32-.78c6.4-1,11-2.57,14.08-4.62h2.05v100.8c.51,8,4.61,15.95,13.57,15.95v2.06h-43v-2.06c9,0,13.32-8.49,13.32-16.72Zm-4.87-70.21a12,12,0,0,1,12-11.83,12,12,0,1,1-12,11.83Z"/><path class="cls-1" d="M317.56,155.87h1.28v19.29c-3.33-4.63-10.5-7.21-16.65-7.21a23.91,23.91,0,0,0-6.15,1c-6.65,2.57-11,8.23-15.1,15.43,16.13,5.4,27.14,17.75,27.91,37.55l.26,1.8c0,19.8-17.93,38.32-47.64,38.83a61.27,61.27,0,0,1-26.12-5.66c-14.6,8-23.3,19-24.84,32.15.51,10.8,5.89,20.06,12.29,22.37a10.13,10.13,0,0,0,3.84.78c10.76,0,16.14-18.27,30.73-28.55a40.28,40.28,0,0,1,41.24-4.12c9,4.12,14.85,13.12,14.85,27.52v4.37c-2.82,21.09-20.49,37.29-42,38.83h-1.79a51.45,51.45,0,0,1-8.71-.77,18.46,18.46,0,0,1-5.38-1.54c-9.73-3.34-13.57-13.63-13.57-22.89a32.77,32.77,0,0,1,.77-7.2c1.28-.77.51-.26,1.79-1a28.71,28.71,0,0,0-1.28,8c0,10.29,6.4,19.81,17.67,22.38a36.94,36.94,0,0,0,5.12.25c14.6,0,27.4-8.48,32.27-20.83a43.13,43.13,0,0,0,2.82-15.17c0-10.54-4.1-20.57-14.34-21.86a25.52,25.52,0,0,0-4.36-.25c-16.9,0-25.35,15.68-35.59,23.91a23.07,23.07,0,0,1-14.6,4.63H230c-14.08-1-21.25-11.83-21.25-24.43,0-13.37,7.94-29.06,24.07-37.8-12.29-7.46-19.21-19.8-19.21-33.69,0-23.4,19.21-40.63,47.38-40.63h.51a89.2,89.2,0,0,1,17.42,2.31c4.09-7.71,8.7-14.66,13.83-19A38.12,38.12,0,0,1,317.56,155.87ZM276.07,189a32,32,0,0,0-17.93-5.14c-8.7,0-15.36,3.08-20.48,9-4.87,5.92-7.43,14.15-7.43,24.43a54.31,54.31,0,0,0,4.35,21.6,36.79,36.79,0,0,0,11.53,15.18,27.76,27.76,0,0,0,17.41,5.65c11.52,0,20.23-6.68,24.59-16.2q3.84-8.1,3.84-19.29c0-7.71-1.28-14.91-4.1-20.83A34.8,34.8,0,0,0,276.07,189Z"/><path class="cls-1" d="M379.28,301.17c-15.88,0-28.94-5.66-39.44-16.72S324,259,324,241.25v-.52c0-17.49,5.12-31.89,15.37-43.46,10.24-11.31,23.81-17,40.46-17h1c18.18.77,31.75,6.43,41.22,17.49,9.22,11.05,14.09,25.2,14.86,42.94v2.57A57.53,57.53,0,0,1,422,282.65c-10,11.57-23.56,17.74-41.22,18.52ZM369,184.41c-7.42,1.8-13.31,5.92-18.18,12.61q-9.21,13.5-9.22,37a100.61,100.61,0,0,0,5.12,32.65c3.59,10,8.46,17.75,14.86,23.41a35.28,35.28,0,0,0,7.42,5.14,37.88,37.88,0,0,0,14.6,3.34,31.18,31.18,0,0,0,18.18-6.43c5.38-4.11,9.73-10.28,12.81-18.51,3.33-8,4.86-17.74,4.86-28.8,0-12.09-1.79-22.63-5.37-31.89s-8.46-16.46-14.86-21.6a33.81,33.81,0,0,0-22-7.72A42.66,42.66,0,0,0,369,184.41Z"/><path class="cls-1" d="M535.49,216.56c0-9.26-.76-19.8-8.19-24.95a23.41,23.41,0,0,0-12.8-3.6c-5.38,0-11.27,1.55-16.91,3.86-8.7,4.12-15.62,11.83-20.74,19.8v70.47c.26,8,4.61,15.94,13.32,15.94v2.06h-43v-2.06c9.22,0,13.32-8.49,13.58-16.72V202.67c0-8.74-4.87-13.37-13.58-13.63V187c7.94,0,21-.77,27.4-5.4h2.31V209.1c4.1-8,9.73-13.11,15.62-17.74,7.17-5.92,15.62-9.52,24.33-9.78h2.05c16.39,0,31.24,11.32,32.78,31.38v69.18c.25,8,4.35,15.68,13.06,15.94H565v2.06h-43v-2.06c9.22,0,13.32-8.49,13.57-16.72Z"/><path class="cls-1" d="M604.64,281.36V180.56h-2c-3.07,2.05-7.68,3.6-14.08,4.62a102.22,102.22,0,0,1-13.32.78v2.31c8.2,0,13.32,4.37,13.32,12.86v79.46c0,8.23-4.35,16.72-13.32,16.72v2.06h43v-2.06C609.25,297.31,605.16,289.34,604.64,281.36Z"/><path class="cls-1" d="M649.51,0l.53.54,1.51,2.58,1.5,2.7,1.07,1.94,1.61,3,2.68,5.39,1.4,3.13,1.5,3.55L662.49,26l1.5,4.41,1,3.35,1,4.09.65,3.56.43,3.23.21,2.15.11,2.48v4.53l-.11,2.37-.43,3.55-.53,2.91-.65,2.91-.86,2.91-1.18,3.45-1.18,2.8-1.28,2.69-1.08,2-1.18,2-1.61,2.48-1.07,1.5-1.29,1.73-1.18,1.4-1,1.18-1.29,1.4-3.22,3.24-1.18,1-1.5,1.29-1.4,1.08L642.32,99l-2.15,1.4-1.61,1-2.79,1.51L632,104.73l-3.22,1.4-4.61,1.94-2.9,1.19-4.94,2.15-4.72,2.37-2,1.19-2.89,1.94-1.29,1-1.07.86-1.4,1.18-1.29,1.3h-.21l-.22.43-1.39,1.4-1.18,1.51-1.07,1.51-1,1.61-1.07,2-.86,2.15-.75,2.8-.32,1.19h-.11V132.1l.21-3.34.54-4.1.64-3.23,1-3.77,1-3.12,1.4-3.78,1.5-3.44,1.18-2.59,1.07-2,1.51-2.8L605.19,97l1.29-2.15,1.29-1.94,1.61-2.37,1.5-2.16,1.4-1.94,1.5-1.94,1.71-2.26L617,80.38l.85-1.08,1.4-1.72,1.5-1.83L622,74.24l1-1.19,1.39-1.61,1.18-1.4,1.29-1.51,1.18-1.4,1.29-1.51,1-1.19,1.29-1.51L633,61.2l1.18-1.4,1.18-1.51,1.51-1.83,1.5-1.94,1.39-1.83,1.61-2.16,1.4-1.94,1.18-1.72,2.14-3.23,1.18-1.83L650,37.07l.22-.54L648.76,38l-.75.86-1,1-.75.86L645,42l-.75.86-1,1.08h-.21l-.21.43-1,1-.75.86-1,1-.75.87-1.07,1.07-.75.87-.86.86-.75.86-1.07,1.08-.76.86L632.88,55l-.75.86-.76.76-.75.86-1,1-.75.86-1.18,1.19-.75.86-1,1-.75.86-.86.86-.75.86-1.07,1.08-.76.86-1.6,1.73-.86.86-.75.86-.86.86L617,72l-1.94,2.15L614,75.32l-.75.86-1,1.08-.86,1.07L610,80l-1.39,1.72-.86,1.08-1.5,1.94-1,1.29-1.5,2-1.61,2.37-1.4,2.16-1.07,1.72-1.61,2.8-1.5,2.91-1.5,3.12-.86,2-.22-.11-.75-2.47-1-4.31-.54-4.1-.21-2.8-.11-2.69V85.77l.32-5.28.32-3.34.65-4.31L593.5,69l.75-2.91,1.29-3.88,1-2.26,1.18-2.37,1.08-1.83,1.07-1.51,1-1.3,1-1.18,1.18-1.29,2.68-2.7,1.18-1,1.29-1.07,1.72-1.3,1.82-1.29,2.58-1.72L617,39.65l1.82-1.08,2.58-1.5,2.79-1.62,2.57-1.51,2.47-1.51,2.36-1.51,1.72-1.18,1.93-1.4,1.5-1.19,1.18-1,1.07-1,.86-.75,2.25-2.26,1-1.19,1.5-1.94,1-1.51,1.18-2,1.29-2.7,1-2.91.54-2.48.21-1.4.11-1.61V2.48L649.61.65Z"/><path class="cls-1" d="M542.75,8.4H543l-.11,1v3.56l.33,1.94.64,2.15.86,2.16,1.18,2.15L547,23.06l1.18,1.51,1,1.07,1.51,1.51.85.76L552.83,29l1.72,1.3,3.54,2.37,2.68,1.61,1.83,1.08L565.39,37l3.11,1.83L572,41.16l1.61,1.18L575,43.42l1.08,1,.85.76,2,2,1,1.19,1.29,1.72,1.5,2.59,1.07,2.48L585,58.72l.65,2.7.64,3.77.32,2.48.22,2.58L587,73V77l-.32,3.77L586,84.47l-.86,3.34h-.32l-1.29-2.9-1.07-2-.65-1.29-1.39-2.38-1.29-2-1.29-1.83-1.39-1.94-1.72-2.27-1.93-2.37-2.58-3-1.07-1.19-.75-.86-1-1.08-1.71-1.83-1.18-1.29-1-1-.75-.86L558,52.47l-1.18-1.18-.75-.86-.64-.65v-.22h-.22l-.75-.86-1.07-1.08-.75-.86-.75-.75-.75-.86-1-1V44l-.43-.21-1.18-1.3-3.11-3.34-.86-.86-.75-.86-1.4-1.4.86,1.51,2.26,3.77,2.25,3.34,1.39,1.94,1.29,1.72,1.07,1.4,1.18,1.51,1.4,1.72,1.93,2.37,1.29,1.51,1.18,1.4,1,1.19,1.4,1.62,1.29,1.5,1.18,1.4,1,1.19,1.18,1.4,1,1.19,1.39,1.72L569,70.9l1.51,1.94,1.28,1.72,1.4,1.94,1.72,2.59,1.28,2,1.4,2.37,1.61,2.91L580.94,90l1.4,3.45,1.29,3.88.86,3.44.53,3,.32,2.59.11,1.94v2.37h-.21l-.86-2.8-.65-1.62-.85-1.62L581.8,103l-1-1.19-1-1.08-1.82-1.83-1.18-1-2-1.51L572.57,95,570,93.63l-3.11-1.51L563,90.51l-4.19-1.73L554.76,87l-2.14-1.07-2.26-1.3-2.25-1.51-1.72-1.29L545,80.6l-.86-.76-1.29-1.18-1.71-1.73-.75-.86-1.29-1.51-1.5-2-1.08-1.61-1.28-2.16-1.08-1.94-1.07-2.26L531.8,61.2l-.86-2.8-.75-3.23-.43-2.7-.21-2.15V44l.43-3.77.53-3,.76-3.12.75-2.7,1.39-4.09,1.18-2.91,1.18-2.69,1-2.16,1.07-2,1.29-2.59,1.39-2.48,1.72-3.12Z"/></g></g></svg>