<?xml version="1.0" encoding="UTF-8"?>
<svg version="1.1" xmlns="http://www.w3.org/2000/svg" width="1512" height="1490">
<path d="M0 0 C8.52251578 3.82834466 12.55449608 12.97434054 16.9375 20.75 C17.5879126 21.89106201 18.2383252 23.03212402 18.90844727 24.20776367 C20.95209203 27.79783024 22.97857247 31.39738615 25 35 C25.93972656 36.67473389 25.93972656 36.67473389 26.8984375 38.38330078 C30.64376045 45.07490495 34.3599076 51.78233222 38.06445312 58.49658203 C39.7201304 61.49594397 41.3828422 64.49134823 43.04750061 67.48573303 C51.01939467 81.82730536 58.82627987 96.23624414 66.34716797 110.82104492 C68.03208774 114.06171558 69.73660341 117.2914879 71.44378662 120.52046204 C86.69236556 149.38154937 101.1284721 178.58556876 113.97198486 208.59893799 C115.04713072 211.11007987 116.12672622 213.61928142 117.20654297 216.12841797 C127.60906616 240.34398367 137.36484339 264.72654749 146.14385986 289.57806396 C147.01955875 292.05532979 147.9000067 294.53087546 148.78076172 297.00634766 C157.55392845 321.72766748 165.39205318 346.61147435 172 372 C172.21613953 372.829552 172.43227905 373.659104 172.65496826 374.51379395 C183.44399329 416.12445265 190.4630167 458.27174567 195 501 C195.0855011 501.79290436 195.1710022 502.58580872 195.25909424 503.40274048 C197.2562129 522.50461765 197.16172776 541.72066692 197.13037109 560.90478516 C197.12466317 564.42514693 197.12808475 567.94543339 197.13379097 571.46579266 C197.16396424 593.11440438 196.62736985 614.44802839 193.875 635.9375 C193.76806824 636.78495789 193.66113647 637.63241577 193.55096436 638.5055542 C191.17546508 657.16511614 187.8574381 675.59427972 184 694 C183.79437439 694.99009064 183.79437439 694.99009064 183.58459473 696.00018311 C170.11925431 760.69607752 145.0086038 823.81964653 112 881 C111.58717773 881.71655762 111.17435547 882.43311523 110.74902344 883.17138672 C97.66840876 905.64815609 82.73708806 927.31637365 67 948 C66.1139529 949.18181927 65.22850265 950.36408634 64.34375 951.546875 C59.11724557 958.48802356 53.56186029 965.10050057 47.87109375 971.66015625 C45.34776886 974.57616474 42.91390083 977.55494544 40.5 980.5625 C29.92467752 993.52415128 17.94267053 1005.24368793 6.12695312 1017.05834961 C3.36820983 1019.81929559 0.61759725 1022.58817706 -2.1328125 1025.35742188 C-3.91357262 1027.14111421 -5.69480634 1028.92433387 -7.4765625 1030.70703125 C-8.28412994 1031.52178421 -9.09169739 1032.33653717 -9.92373657 1033.17597961 C-14.64171909 1037.875385 -19.5186344 1042.16834374 -24.77613831 1046.2570343 C-28.06757344 1048.83671745 -31.18094692 1051.60566423 -34.3125 1054.375 C-40.99817048 1060.21516204 -47.8669087 1065.71601033 -55 1071 C-55.93924316 1071.70213623 -55.93924316 1071.70213623 -56.89746094 1072.41845703 C-88.06044367 1095.65001199 -121.59846186 1115.69324297 -156.49609375 1132.7734375 C-160.15704918 1134.56834283 -163.78417158 1136.42456916 -167.41015625 1138.2890625 C-184.99263202 1147.29693667 -202.86788376 1155.3155392 -221.08837891 1162.93994141 C-226.35169542 1165.1438862 -231.60370853 1167.37415733 -236.85546875 1169.60546875 C-253.98116319 1176.87474323 -271.1283824 1184.08041455 -288.36178589 1191.09082031 C-308.59744831 1199.32399423 -328.61799275 1208.01811456 -348.56912231 1216.91729736 C-351.09506989 1218.04234373 -353.62358511 1219.16149797 -356.15209961 1220.28076172 C-365.99632665 1224.6543062 -375.65577845 1229.22484508 -385.1875 1234.25 C-386.42007847 1234.89533508 -387.65291371 1235.54017993 -388.88598633 1236.18457031 C-390.76546193 1237.16707225 -392.64461951 1238.1501462 -394.52250671 1239.13568115 C-398.59578479 1241.27256434 -402.68349173 1243.3790374 -406.78125 1245.46875 C-424.30562832 1254.42483376 -440.88676923 1264.24965503 -456.97607422 1275.57763672 C-459.07312696 1277.05139176 -461.17853538 1278.51261728 -463.28515625 1279.97265625 C-476.99271729 1289.50935648 -489.93137631 1299.75164123 -502.52099609 1310.71630859 C-503.76326854 1311.79453054 -505.01528736 1312.86150889 -506.26953125 1313.92578125 C-511.33398704 1318.24758772 -515.95991901 1322.95709528 -520.58203125 1327.7421875 C-523 1330 -523 1330 -526 1331 C-526.94991412 1332.42068654 -527.89465238 1333.84531095 -528.80371094 1335.29248047 C-531.00140082 1338.42934639 -533.86222102 1340.92943071 -536.625 1343.5625 C-542.58464294 1349.39655512 -547.79950089 1355.43197815 -552.68554688 1362.19384766 C-554.1170925 1364.16089345 -555.5807019 1366.10161315 -557.046875 1368.04296875 C-565.62148591 1379.51076584 -572.97446918 1391.53335148 -580 1404 C-580.45503906 1404.79486816 -580.91007813 1405.58973633 -581.37890625 1406.40869141 C-596.28618249 1432.59098591 -603.64135012 1461.02557997 -611 1490 C-611.99 1490 -612.98 1490 -614 1490 C-614.7680481 1399.7189001 -600.07209192 1313.05102352 -545.01947021 1174.24926758 C-544.05908404 1172.13035772 -543.10243724 1170.00980454 -542.14697266 1167.88867188 C-534.65881206 1151.29014919 -526.59319654 1135.05290191 -518 1119 C-517.50145508 1118.06494629 -517.00291016 1117.12989258 -516.48925781 1116.16650391 C-509.30603446 1102.72577913 -501.75126982 1089.5190254 -494.00146484 1076.39794922 C-492.21862648 1073.37116898 -490.44656413 1070.33847349 -488.67814636 1067.30326843 C-478.71946956 1050.22553647 -468.34897854 1033.56118552 -457.20410156 1017.23046875 C-454.9883986 1013.98299626 -452.78574735 1010.72700495 -450.5859375 1007.46875 C-431.31709904 978.9689943 -411.47358678 950.91136846 -390.29248047 923.79663086 C-386.21919305 918.58050694 -382.19385175 913.33014333 -378.1875 908.0625 C-373.25766023 901.5933205 -368.18696399 895.26544165 -363 889 C-360.86949643 886.4003037 -358.74622292 883.79477225 -356.625 881.1875 C-356.0695752 880.50510254 -355.51415039 879.82270508 -354.94189453 879.11962891 C-351.37102106 874.72078711 -347.85667401 870.28212334 -344.375 865.8125 C-340.34187215 860.63834924 -336.1746442 855.60015727 -331.91357422 850.61254883 C-329.21660482 847.4522341 -326.57928852 844.25694273 -324 841 C-318.68574211 834.30035512 -313.10767322 827.82253681 -307.56347656 821.31347656 C-300.74266971 813.30325695 -300.74266971 813.30325695 -294.125 805.125 C-289.17760177 798.8852202 -283.90718791 792.92686613 -278.67578125 786.92578125 C-272.5460638 779.88160711 -266.44433871 772.81569637 -260.5625 765.5625 C-256.46084729 760.51145932 -252.21408989 755.59871604 -247.94213867 750.69213867 C-243.02402796 745.04064433 -238.17808344 739.33129204 -233.3515625 733.6015625 C-231.9668453 731.96071264 -230.57781109 730.32361195 -229.1875 728.6875 C-224.16103517 722.76960809 -219.19529504 716.81068099 -214.29296875 710.7890625 C-211.82910493 707.79213104 -209.3258604 704.83034954 -206.8125 701.875 C-198.5138098 692.10992208 -190.40749381 682.18410689 -182.3125 672.25 C-179.57123885 668.88941688 -176.78837953 665.57042557 -173.97094727 662.27392578 C-169.3611018 656.87699455 -164.9270805 651.38931868 -160.63134766 645.73925781 C-155.85272157 639.46268338 -150.81736633 633.40473246 -145.7890625 627.328125 C-141.45197276 622.06274588 -137.21446334 616.73664176 -133.07348633 611.31542969 C-130.64942347 608.14214445 -128.20955603 604.9826833 -125.74609375 601.83984375 C-119.13712548 593.40471319 -112.65386568 584.89614933 -106.32348633 576.24975586 C-102.07283893 570.44470098 -97.76702842 564.68390438 -93.4375 558.9375 C-88.59386737 552.49561902 -83.7915241 546.02656964 -79.0625 539.5 C-78.31987915 538.47894165 -78.31987915 538.47894165 -77.56225586 537.43725586 C-73.65653635 532.02107307 -69.9582293 526.47630456 -66.2696228 520.9107666 C-64.28911475 517.93012649 -62.2970429 514.95724714 -60.30615234 511.98353577 C-42.52728535 485.4273625 -25.10903868 458.84447115 -9.04370117 431.21237183 C-4.11949074 422.75437962 0.93895526 414.37656538 6 406 C-0.46358963 411.07057462 -5.96869616 416.61610418 -11.0625 423.0625 C-15.54376712 428.65823877 -20.52170812 433.63265566 -25.62670898 438.65795898 C-29.30555662 442.28484156 -32.80237344 445.96240165 -36.1328125 449.9140625 C-38.80267318 452.8967102 -41.65442751 455.6858681 -44.5 458.5 C-49.21727006 463.17011064 -53.70320458 467.93734058 -58 473 C-59.57341509 474.84185246 -61.15718445 476.67489885 -62.75 478.5 C-63.48734375 479.3559375 -64.2246875 480.211875 -64.984375 481.09375 C-67 483 -67 483 -70 483 C-70.23589844 483.72960937 -70.47179688 484.45921875 -70.71484375 485.2109375 C-72.21161576 488.45925122 -73.95679541 490.18648459 -76.5625 492.625 C-80.04314542 495.99160718 -83.2006753 499.37731107 -86.1875 503.1875 C-90.61770002 508.74696669 -95.56071358 513.67114571 -100.62280273 518.65405273 C-104.34631749 522.32486515 -107.89291716 526.04830385 -111.265625 530.046875 C-114.01858155 533.1470513 -116.99956035 536.0197751 -119.94970703 538.93017578 C-123.22086374 542.17428883 -126.26993632 545.53652822 -129.2578125 549.0390625 C-131.97287999 552.09503533 -134.91127043 554.91919945 -137.8203125 557.7890625 C-139.76233548 559.75892811 -141.58061671 561.77153633 -143.375 563.875 C-146.21772844 567.19809691 -149.25047153 570.25306588 -152.375 573.3125 C-155.85203222 576.7240712 -159.06224647 580.21934616 -162.0625 584.0625 C-167.0417168 590.33396363 -172.72486081 595.85902567 -178.44165039 601.45532227 C-182.6517799 605.58882933 -186.65900694 609.80262686 -190.50341797 614.27856445 C-192.24698748 616.28409604 -194.08858929 618.1545 -196 620 C-198.5792506 622.53972186 -201.02217389 625.12451314 -203.375 627.875 C-206.11621449 631.06682509 -209.00685888 634.04302977 -212 637 C-214.91053801 639.87557659 -217.72424022 642.75874094 -220.375 645.875 C-223.36222299 649.37653261 -226.59057736 652.59342885 -229.875 655.8125 C-233.60921576 659.4824218 -237.06778995 663.19067551 -240.3125 667.3125 C-244.69454452 672.84012471 -249.60061781 677.71051843 -254.61889648 682.65014648 C-258.38714202 686.3649485 -261.98341749 690.13420226 -265.3984375 694.1796875 C-268.05430971 697.19831299 -270.9592676 699.96655019 -273.8203125 702.7890625 C-275.76233548 704.75892811 -277.58061671 706.77153633 -279.375 708.875 C-282.21772844 712.19809691 -285.25047153 715.25306588 -288.375 718.3125 C-291.97507667 721.84417826 -295.29922086 725.48474915 -298.4375 729.4375 C-302.23581469 734.2109655 -306.34914056 738.46683006 -310.69677734 742.72802734 C-314.03246993 746.00394432 -317.13422079 749.38278777 -320.16015625 752.94140625 C-322.95629016 756.0699892 -325.96326184 758.98397609 -328.94897461 761.92944336 C-332.22377301 765.17718197 -335.27668149 768.54233089 -338.265625 772.05078125 C-340.21333705 774.23976394 -342.27630233 776.268079 -344.375 778.3125 C-348.55898525 782.43244466 -352.20696192 786.85491427 -355.875 791.43359375 C-358.20986462 794.25345782 -360.70081529 796.79299094 -363.328125 799.3359375 C-365.72877068 801.72536521 -367.91620795 804.28115955 -370.12890625 806.84375 C-374.49155444 811.87126942 -378.9730619 816.79750033 -383.48046875 821.6953125 C-388.42103488 827.0724868 -393.13099602 832.56276931 -397.71484375 838.24609375 C-400.08366025 841.10082133 -402.54926417 843.8343921 -405.0625 846.5625 C-408.82416627 850.6530236 -412.3266734 854.8584055 -415.7578125 859.2265625 C-418.48563256 862.60069533 -421.33036145 865.86036033 -424.1875 869.125 C-434.42822168 880.85528119 -444.09794075 893.04213119 -453.67919922 905.31298828 C-454.96982698 906.96146108 -456.26683747 908.60466357 -457.56640625 910.24609375 C-469.93299028 925.87853375 -481.97461115 941.74869071 -493.55224609 957.97460938 C-494.92047278 959.88874235 -496.29651825 961.79693521 -497.67578125 963.703125 C-503.66523961 971.99746041 -509.38425077 980.44908583 -515 989 C-515.54785156 989.83144531 -516.09570312 990.66289063 -516.66015625 991.51953125 C-530.98657177 1013.27679086 -544.84448915 1035.18030862 -557.36962891 1058.03173828 C-558.89454716 1060.80801204 -560.43484928 1063.57505697 -561.98046875 1066.33984375 C-577.67246155 1094.5547968 -592.53033581 1123.8013905 -604 1154 C-605.87451172 1153.80371094 -605.87451172 1153.80371094 -608 1153 C-609.12158203 1150.93847656 -609.12158203 1150.93847656 -610.0078125 1148.140625 C-610.34965576 1147.06876953 -610.69149902 1145.99691406 -611.04370117 1144.89257812 C-611.40052979 1143.69052734 -611.7573584 1142.48847656 -612.125 1141.25 C-612.31397858 1140.62343506 -612.50295715 1139.99687012 -612.69766235 1139.35131836 C-625.47464541 1096.75563465 -632.65098184 1052.38180337 -635 1008 C-635.08453039 1006.60000008 -635.16935232 1005.20001775 -635.25439453 1003.80004883 C-636.08825303 989.47410791 -636.24193657 975.1602976 -636.25 960.8125 C-636.25100708 959.55521088 -636.25201416 958.29792175 -636.25305176 957.00253296 C-636.23943669 931.58019668 -635.09054967 906.33200844 -633 881 C-632.92974609 880.13793945 -632.85949219 879.27587891 -632.78710938 878.38769531 C-626.56404408 802.75128017 -613.36245584 722.80030191 -580 654 C-579.46407227 652.8749707 -578.92814453 651.74994141 -578.37597656 650.59082031 C-568.21310043 629.3200887 -556.85005397 609.36184459 -542.34619141 590.74316406 C-540.33078362 588.13344125 -538.39021353 585.4693003 -536.4375 582.8125 C-524.18412503 566.49674486 -510.0255607 551.83863776 -495.62036133 537.43505859 C-493.43216464 535.24465927 -491.25213 533.04634418 -489.07226562 530.84765625 C-482.00793023 523.755282 -474.98519484 517.05152985 -467 511 C-465.94032583 510.11206879 -464.88843022 509.21469888 -463.84765625 508.3046875 C-455.40836972 500.94250486 -446.49813149 494.32245428 -437.42871094 487.75976562 C-435.08459806 486.06129702 -432.74844242 484.35243656 -430.4140625 482.640625 C-420.80844894 475.6191303 -411.02616559 468.91801666 -401.0859375 462.38037109 C-399.16203942 461.10722974 -397.25039045 459.81832553 -395.34375 458.51953125 C-384.9946951 451.48669278 -374.31694194 445.01653334 -363.59863281 438.56445312 C-361.46703747 437.28117025 -359.33806278 435.99379336 -357.2109375 434.703125 C-335.01284445 421.29069407 -312.50991026 408.36927362 -290.10253906 395.31152344 C-284.15753788 391.84676796 -278.21399764 388.37952524 -272.27197266 384.90966797 C-269.97530252 383.56922969 -267.67816 382.22963035 -265.38037109 380.89111328 C-245.54678058 369.36568454 -245.54678058 369.36568454 -226.03955078 357.30029297 C-223.69736125 355.80705602 -221.34687904 354.32732268 -218.99609375 352.84765625 C-192.72898996 336.41080508 -192.72898996 336.41080508 -167.7265625 318.15234375 C-165.05490523 316.0433421 -162.32956016 314.04409784 -159.5625 312.0625 C-152.88616346 307.23588441 -146.42501547 302.15423989 -140 297 C-139.32098633 296.45537109 -138.64197266 295.91074219 -137.94238281 295.34960938 C-129.07872849 288.21136959 -120.50052773 280.87122184 -112.24609375 273.03515625 C-109.95326427 270.86376377 -107.60377467 268.77927357 -105.2109375 266.71875 C-92.74423674 255.86901294 -81.03227658 243.97433099 -71.234375 230.65332031 C-69.48952117 228.31626531 -67.66668901 226.04457038 -65.84545898 223.7668457 C-63.53461972 220.86697683 -61.26712612 217.93407804 -59 215 C-58.23558594 214.01902344 -57.47117187 213.03804687 -56.68359375 212.02734375 C-42.52412943 193.07618254 -30.92028712 171.41599349 -21 150 C-20.67386719 149.30181152 -20.34773438 148.60362305 -20.01171875 147.88427734 C-4.66326699 114.48506663 3.19494694 76.83960163 3.25 40.1875 C3.25233643 39.47320831 3.25467285 38.75891663 3.25708008 38.02297974 C3.27285623 25.16523629 2.15100082 12.68834415 0 0 Z " fill="#375A3F" transform="translate(1315,0)"/>
<path d="M0 0 C1.32 0 2.64 0 4 0 C3.99111755 0.61735519 3.98223511 1.23471039 3.9730835 1.87077332 C3.88323874 8.41057889 3.82371021 14.95020401 3.78027344 21.49047852 C3.76039842 23.9176345 3.73328889 26.34474419 3.69824219 28.77172852 C3.47932152 44.3440706 4.24818176 58.85410545 8 74 C8.27199219 75.11995361 8.54398438 76.23990723 8.82421875 77.39379883 C9.52371504 80.06062844 10.29307303 82.68428573 11.125 85.3125 C11.41938965 86.25287109 11.7137793 87.19324219 12.01708984 88.16210938 C23.21770913 122.89609755 41.97326112 154.71514492 66.734375 181.5234375 C68.62119664 183.58592874 70.45440818 185.67788158 72.28125 187.79296875 C75.95257351 191.99801753 79.80114673 195.99345478 83.75 199.9375 C84.4510083 200.63770264 85.1520166 201.33790527 85.87426758 202.05932617 C90.49675264 206.62775948 95.20606018 210.86490109 100.3203125 214.87890625 C102.76485982 216.81387592 105.12296325 218.82460183 107.47338867 220.87207031 C119.78763924 231.54984419 133.30335109 240.68434911 146.91113281 249.61767578 C149.25080876 251.16597466 151.57508463 252.7359109 153.8984375 254.30859375 C164.99517027 261.80316432 176.25400369 268.9028488 187.79248047 275.69628906 C190.85439743 277.50458773 193.89478586 279.34706341 196.9375 281.1875 C212.52881818 290.56162353 228.25949846 299.71552673 244.03417969 308.77709961 C249.36315599 311.8392786 254.68367482 314.91591641 260 318 C261.49781006 318.86794189 261.49781006 318.86794189 263.02587891 319.75341797 C288.1902731 334.40220656 312.72985593 350.48449967 336 368 C336.60134766 368.45262207 337.20269531 368.90524414 337.82226562 369.37158203 C341.57760206 372.21065742 345.29500185 375.09540226 349 378 C349.845625 378.65097656 350.69125 379.30195313 351.5625 379.97265625 C357.58036275 384.66928952 363.16474628 389.75405337 368.7265625 394.97265625 C371.01804406 397.11662807 373.36174143 399.18201313 375.7421875 401.2265625 C380.87947576 405.70067801 385.68289703 410.49885263 390.5 415.3125 C391.39847656 416.19873047 392.29695312 417.08496094 393.22265625 417.99804688 C398.93497226 423.69789058 404.08313814 429.60704145 409 436 C410.17821615 437.4793015 411.35659842 438.95847071 412.53515625 440.4375 C456.98678985 497.45331395 473.67659644 570.03314776 482.3125 640.375 C482.45969482 641.56391846 482.60688965 642.75283691 482.75854492 643.9777832 C483.22147598 647.98109401 483.62206022 651.98801189 484 656 C484.08613556 656.87713654 484.17227112 657.75427307 484.26101685 658.6579895 C486.16019686 678.54096758 486.34365012 698.35832567 486.31567383 718.31323242 C486.31104732 721.88725385 486.31796582 725.46093452 486.33618164 729.03491211 C486.48431683 758.43489649 485.34772769 787.3383239 479.875 816.3125 C479.73125946 817.09956329 479.58751892 817.88662659 479.43942261 818.69754028 C476.20615211 836.3594478 471.76969625 853.69784135 467 871 C465.35 871.33 463.7 871.66 462 872 C461.06118674 870.00061612 460.12410075 868.00042128 459.1875 866 C458.72162476 865.00661621 458.72162476 865.00661621 458.24633789 863.99316406 C456.3236502 859.87967928 454.43450365 855.75323444 452.578125 851.609375 C443.1131147 830.5545926 432.68345778 809.91806732 421 790 C420.54947266 789.23171875 420.09894531 788.4634375 419.63476562 787.671875 C408.56118219 768.86600299 396.64826933 750.78131137 384 733 C383.46117187 732.24074219 382.92234375 731.48148438 382.3671875 730.69921875 C373.51986885 718.25631494 364.32573989 706.08743969 355 694 C354.23042969 693.00226563 354.23042969 693.00226563 353.4453125 691.984375 C342.54405342 677.89103454 331.1340764 664.21114116 319.48974609 650.72802734 C317.40328869 648.30784617 315.32678377 645.87920122 313.24975586 643.45092773 C307.17954419 636.35620776 301.08258903 629.29449111 294.8125 622.375 C291.74985727 618.98643415 288.75452889 615.55219588 285.80151367 612.06860352 C279.32073712 604.4253463 272.56127172 597.08634384 265.6875 589.79638672 C263.10603154 587.04834781 260.55276774 584.27467333 258 581.5 C245.57148286 567.90599795 245.57148286 567.90599795 232.6875 554.75 C228.55659861 550.67964928 224.96940586 546.32548999 221.35546875 541.796875 C217.99425919 537.80578703 214.2940115 534.21231209 210.5703125 530.56640625 C207.76566512 527.76602126 205.18081004 524.84037747 202.609375 521.828125 C200.43628215 519.35966031 198.09527631 517.08464637 195.75 514.78125 C193.29365151 512.28103815 191.03690632 509.62319484 188.75 506.96875 C186.54813106 504.49164744 184.20264754 502.18852034 181.83642578 499.86987305 C180.09164289 498.093312 178.47814345 496.2610418 176.8671875 494.36328125 C172.69079765 489.55855564 168.16896508 485.14125334 163.625 480.6875 C157.64508788 474.77630934 151.90533215 468.91037009 146.7890625 462.2265625 C144.95100142 459.83900481 144.95100142 459.83900481 142.2734375 457.3984375 C140 455 140 455 140 452 C139.40993164 451.90340088 138.81986328 451.80680176 138.21191406 451.70727539 C135.52975793 450.84963673 134.49120662 449.76020094 132.609375 447.68359375 C131.98611328 447.00554687 131.36285156 446.3275 130.72070312 445.62890625 C130.07037109 444.90574219 129.42003906 444.18257812 128.75 443.4375 C127.40204255 441.96653011 126.0530948 440.49646704 124.703125 439.02734375 C124.06052734 438.32464355 123.41792969 437.62194336 122.75585938 436.89794922 C120.72721049 434.70513548 118.63520202 432.58896733 116.5 430.5 C113.41770772 427.47085069 110.5968628 424.27634944 107.78125 421 C105.9257479 418.91662922 103.98776899 416.95718793 102 415 C98.77811989 411.82759213 95.80622462 408.52214904 92.875 405.08203125 C90.00516978 401.89532395 86.86448939 398.99441753 83.72265625 396.078125 C82 394 82 394 82 390 C81.28585938 389.77570313 80.57171875 389.55140625 79.8359375 389.3203125 C76.34827356 387.69657915 74.30364266 385.6303946 71.625 382.875 C70.73039063 381.96492188 69.83578125 381.05484375 68.9140625 380.1171875 C66.12618671 377.18311295 63.48405784 374.13002147 60.83007812 371.07519531 C57.78156927 367.61837497 54.60877897 364.28137896 51.4375 360.9375 C50.02701568 359.44562261 48.61686596 357.9534288 47.20703125 356.4609375 C46.50400879 355.71682617 45.80098633 354.97271484 45.07666016 354.20605469 C42.50135834 351.4702885 39.94476442 348.71753025 37.38916016 345.96337891 C32.09027131 340.25383717 26.71245012 334.67134147 21.16796875 329.19921875 C18.56199541 326.55568183 16.14967228 323.78094132 13.73828125 320.9609375 C10.65393723 317.4815202 7.3174866 314.25483666 4 311 C4.73790771 312.29079468 4.73790771 312.29079468 5.49072266 313.60766602 C5.81350189 314.17243149 6.13628113 314.73719696 6.46884155 315.31907654 C7.19278379 316.58559871 7.91693092 317.85200378 8.64126587 319.11830139 C10.37885961 322.15721738 12.1121084 325.19829285 13.83496094 328.24560547 C22.74247759 343.98652377 32.25967965 359.21517271 42.3125 374.25 C42.85372498 375.06008514 43.39494995 375.87017029 43.95257568 376.70480347 C53.64299788 391.18127039 63.56854599 405.49964953 73.9375 419.5 C74.51757812 420.2849585 75.09765625 421.06991699 75.6953125 421.87866211 C81.705902 429.98920946 87.82967447 438.01059265 94 446 C94.5671875 446.73605469 95.134375 447.47210937 95.71875 448.23046875 C103.5389049 458.37223214 111.50387742 468.38039936 119.61035156 478.29443359 C121.50612176 480.62118176 123.37963521 482.96530307 125.25 485.3125 C128.61982181 489.53703753 132.03553321 493.72209019 135.46484375 497.8984375 C137.32272948 500.16531046 139.16596134 502.44349484 141.00390625 504.7265625 C147.00564868 512.1717967 153.1080191 519.50051417 159.40087891 526.70166016 C163.28042696 531.14704931 167.04361143 535.67288298 170.7578125 540.2578125 C173.76164728 543.93149197 176.83577034 547.54332001 179.91015625 551.15795898 C182.85983711 554.63281936 185.75678897 558.14470972 188.625 561.6875 C192.20339061 566.08726497 195.94830818 570.29581432 199.765625 574.48828125 C202.78690037 577.88457506 205.62575933 581.4159298 208.484375 584.94921875 C211.42925361 588.52056998 214.45729425 592.01203094 217.5 595.5 C222.79005251 601.5702895 227.94097923 607.73510464 233 614 C237.93676864 620.0962299 242.94081827 626.12131721 248.0625 632.0625 C252.08042605 636.72672278 256.01258964 641.43704535 259.828125 646.26953125 C261.51085335 648.38504765 263.20839763 650.48379825 264.921875 652.57421875 C271.15795032 660.18564767 277.25254531 667.87935426 283.19848633 675.71972656 C286.68669905 680.31061053 290.24828211 684.83050996 293.875 689.3125 C301.16770443 698.35235176 308.07821002 707.67508533 315 717 C315.59603027 717.79986328 316.19206055 718.59972656 316.80615234 719.42382812 C329.30359133 736.19752419 341.43347864 753.19829228 352.64355469 770.86376953 C354.02991401 773.0471108 355.42477251 775.22486138 356.8203125 777.40234375 C375.35257824 806.41763318 392.45015582 836.28162948 408 867 C408.53947266 868.05751465 409.07894531 869.1150293 409.63476562 870.20458984 C438.95093751 928.00005328 458.17859224 990.85394596 467 1055 C467.09345703 1055.67407898 467.18691406 1056.34815796 467.28320312 1057.04266357 C469.47154526 1073.01765682 470.1484256 1088.83374527 470.0625 1104.9375 C470.05746771 1106.60351426 470.0529079 1108.26953001 470.04882812 1109.93554688 C470.03797619 1113.95706926 470.02081016 1117.97851733 470 1122 C468.68 1122 467.36 1122 466 1122 C465.73896484 1121.09983154 465.47792969 1120.19966309 465.20898438 1119.2722168 C454.50178836 1082.56819263 440.77850627 1050.83495678 415 1022 C414.55253418 1021.4961377 414.10506836 1020.99227539 413.64404297 1020.47314453 C410.16892606 1016.5783815 406.60514682 1012.77441648 403 1009 C402.33581055 1008.30181152 401.67162109 1007.60362305 400.98730469 1006.88427734 C391.33964401 996.80525281 381.46895846 987.69360437 370.13867188 979.54443359 C367.96562433 977.97517574 365.81758343 976.37592078 363.671875 974.76953125 C346.02115936 961.65012019 327.21251691 950.75523856 307.79394531 940.48291016 C305.26844246 939.14247811 302.75358952 937.78457669 300.2421875 936.41796875 C271.09837545 920.65174779 240.2733748 908.40200431 209.59568787 896.00387573 C185.49980669 886.26447381 161.74974287 875.90078324 138.15753174 864.99609375 C136.21571281 864.09959074 134.27218128 863.20697753 132.32763672 862.31640625 C94.68311923 845.02755826 59.8133814 822.57655676 28.56542969 795.35498047 C26.84948965 793.86972357 25.11766038 792.40452545 23.3828125 790.94140625 C17.62348736 786.07280008 12.01621814 781.18536022 6.76171875 775.765625 C5.05371263 774.05383172 3.28450387 772.49701712 1.4375 770.9375 C-8.16563589 762.64388264 -17.1137035 753.49950061 -24.96484375 743.53515625 C-27.02888979 740.96401253 -29.2016497 738.5474952 -31.4375 736.125 C-36.66612627 730.36357762 -41.36498902 724.23931345 -46 718 C-46.50047852 717.32936523 -47.00095703 716.65873047 -47.51660156 715.96777344 C-55.92482131 704.65838114 -63.6795286 693.04003338 -71 681 C-71.52062012 680.14422363 -72.04124023 679.28844727 -72.57763672 678.40673828 C-110.40139854 615.92680578 -134.22783277 548.55183134 -143 476 C-143.13314606 474.97903984 -143.13314606 474.97903984 -143.26898193 473.93745422 C-144.25226663 465.56518501 -144.21946735 457.16359091 -144.2734375 448.74609375 C-144.27971664 447.91861696 -144.28599579 447.09114017 -144.29246521 446.23858833 C-144.33873829 439.97158311 -144.36236446 433.70465718 -144.375 427.4375 C-144.37700661 426.51957672 -144.37901321 425.60165344 -144.38108063 424.65591431 C-144.42594532 398.17690198 -144.07009755 372.18471819 -139.36065674 346.05108643 C-138.87407585 343.28385836 -138.44291744 340.50901975 -138.01004028 337.73297119 C-134.46935936 315.16621939 -128.90013067 293.05053571 -123 271 C-122.67306152 269.77684082 -122.34612305 268.55368164 -122.00927734 267.29345703 C-112.9171447 233.88686919 -100.76460757 201.11482282 -87.02020264 169.35943604 C-85.93005477 166.83823676 -84.84605058 164.31444274 -83.76220703 161.79052734 C-72.84160999 136.41605737 -61.08221716 111.63167735 -48.20361328 87.19433594 C-46.20276454 83.39485593 -44.23456722 79.57995277 -42.27734375 75.7578125 C-36.95346155 65.37392075 -31.45720016 55.13355308 -25.59887695 45.04101562 C-20.85856382 36.84915467 -16.39795362 28.51372196 -11.98266602 20.14282227 C-9.21430286 14.93578915 -6.36772735 9.78309329 -3.33203125 4.7265625 C-2.78909424 3.81729004 -2.24615723 2.90801758 -1.68676758 1.97119141 C-1.13013428 1.32069824 -0.57350098 0.67020508 0 0 Z " fill="#5C8464" transform="translate(144,92)"/>
</svg>
